<?xml version="1.0" encoding="utf-8"?>
<!-- Generator: Adobe Illustrator 14.0.0, SVG Export Plug-In . SVG Version: 6.00 Build 43363)  -->
<!DOCTYPE svg PUBLIC "-//W3C//DTD SVG 1.1//EN" "http://www.w3.org/Graphics/SVG/1.1/DTD/svg11.dtd">
<svg version="1.1" id="Layer_1" xmlns="http://www.w3.org/2000/svg" xmlns:xlink="http://www.w3.org/1999/xlink" x="0px" y="0px"
	 width="30.855px" height="30.857px" viewBox="0 0 30.855 30.857" enable-background="new 0 0 30.855 30.857" xml:space="preserve">
<g>
	<path fill="#FFFEFE" d="M25.071,0c1.595,0,2.957,0.566,4.089,1.697c1.132,1.132,1.696,2.495,1.696,4.088v19.286
		c0,1.594-0.564,2.957-1.696,4.088s-2.494,1.697-4.089,1.697h-3.776V18.904h3.998l0.604-4.661h-4.602V11.27
		c0-0.75,0.158-1.312,0.473-1.688c0.315-0.376,0.928-0.562,1.838-0.562L26.056,9V4.841C25.212,4.719,24.021,4.66,22.48,4.66
		c-1.82,0-3.276,0.536-4.369,1.607c-1.092,1.071-1.637,2.585-1.637,4.541v3.435h-4.018v4.661h4.018v11.953H5.786
		c-1.595,0-2.957-0.566-4.088-1.697C0.565,28.028,0,26.666,0,25.071V5.786C0,4.192,0.565,2.83,1.698,1.697
		C2.829,0.566,4.192,0,5.786,0H25.071z"/>
</g>
</svg>
