<?xml version="1.0" encoding="utf-8"?>
<!-- Generator: Adobe Illustrator 14.0.0, SVG Export Plug-In . SVG Version: 6.00 Build 43363)  -->
<!DOCTYPE svg PUBLIC "-//W3C//DTD SVG 1.1//EN" "http://www.w3.org/Graphics/SVG/1.1/DTD/svg11.dtd">
<svg version="1.1" id="Layer_1" xmlns="http://www.w3.org/2000/svg" xmlns:xlink="http://www.w3.org/1999/xlink" x="0px" y="0px"
	 width="30.856px" height="30.857px" viewBox="0 0 30.856 30.857" enable-background="new 0 0 30.856 30.857" xml:space="preserve">
<g>
	<path fill="#FFFEFE" d="M15.43,13.219h14.564c0.16,0.897,0.24,1.754,0.24,2.571c0,2.906-0.609,5.501-1.828,7.785
		c-1.219,2.284-2.957,4.068-5.213,5.354c-2.256,1.286-4.846,1.928-7.764,1.928c-2.104,0-4.105-0.405-6.008-1.215
		C7.52,28.831,5.879,27.737,4.5,26.357c-1.379-1.379-2.475-3.02-3.283-4.922C0.406,19.534,0,17.531,0,15.429
		s0.406-4.105,1.217-6.007C2.025,7.52,3.121,5.879,4.5,4.5s3.02-2.474,4.922-3.285C11.324,0.405,13.326,0,15.43,0
		c4.018,0,7.465,1.346,10.346,4.038l-4.199,4.038c-1.646-1.594-3.695-2.391-6.146-2.391c-1.729,0-3.326,0.436-4.791,1.306
		C9.172,7.862,8.01,9.043,7.152,10.537c-0.857,1.494-1.285,3.124-1.285,4.892c0,1.768,0.428,3.398,1.285,4.892
		c0.857,1.494,2.02,2.675,3.486,3.546c1.465,0.871,3.062,1.306,4.791,1.306c1.164,0,2.236-0.161,3.213-0.482
		c0.979-0.321,1.781-0.723,2.412-1.205c0.629-0.482,1.178-1.031,1.646-1.647c0.469-0.616,0.814-1.198,1.035-1.748
		s0.371-1.071,0.451-1.567H15.43V13.219z"/>
</g>
</svg>
