<?xml version="1.0" encoding="utf-8"?>
<!-- Generator: Adobe Illustrator 14.0.0, SVG Export Plug-In . SVG Version: 6.00 Build 43363)  -->
<!DOCTYPE svg PUBLIC "-//W3C//DTD SVG 1.1//EN" "http://www.w3.org/Graphics/SVG/1.1/DTD/svg11.dtd">
<svg version="1.1" id="Layer_1" xmlns="http://www.w3.org/2000/svg" xmlns:xlink="http://www.w3.org/1999/xlink" x="0px" y="0px"
	 width="30.855px" height="30.857px" viewBox="0 0 30.855 30.857" enable-background="new 0 0 30.855 30.857" xml:space="preserve">
<g>
	<path fill="#FFFEFE" d="M30.856,15.429c0,3.066-0.032,5.189-0.1,6.367c-0.135,2.786-0.965,4.942-2.492,6.47
		c-1.525,1.526-3.682,2.356-6.467,2.49c-1.18,0.067-3.303,0.101-6.369,0.101c-3.067,0-5.189-0.033-6.369-0.101
		c-2.785-0.134-4.94-0.964-6.469-2.49c-1.525-1.527-2.356-3.684-2.49-6.47C0.033,20.619,0,18.496,0,15.429
		c0-3.067,0.033-5.19,0.101-6.369c0.134-2.785,0.965-4.942,2.49-6.47C4.118,1.064,6.275,0.234,9.06,0.1
		C10.239,0.034,12.361,0,15.429,0c3.066,0,5.189,0.034,6.369,0.102c2.785,0.134,4.94,0.964,6.467,2.49
		c1.527,1.527,2.357,3.685,2.492,6.47C30.823,10.239,30.856,12.362,30.856,15.429z M16.966,2.762
		c-0.932,0.007-1.443,0.01-1.537,0.01s-0.605-0.003-1.537-0.01c-0.931-0.008-1.637-0.008-2.119,0
		c-0.481,0.007-1.129,0.026-1.938,0.06c-0.811,0.034-1.5,0.101-2.068,0.201C7.197,3.124,6.717,3.247,6.329,3.395
		C5.659,3.663,5.07,4.051,4.56,4.56C4.052,5.069,3.664,5.659,3.396,6.328C3.248,6.717,3.125,7.195,3.024,7.765
		C2.923,8.335,2.857,9.024,2.824,9.834c-0.034,0.812-0.056,1.457-0.062,1.939c-0.008,0.481-0.008,1.188,0,2.119
		c0.006,0.931,0.01,1.442,0.01,1.537c0,0.094-0.004,0.605-0.01,1.536c-0.008,0.932-0.008,1.638,0,2.12
		c0.006,0.482,0.026,1.128,0.062,1.938c0.032,0.811,0.1,1.5,0.199,2.068c0.101,0.569,0.225,1.049,0.372,1.437
		c0.269,0.67,0.656,1.259,1.164,1.768c0.51,0.51,1.1,0.897,1.77,1.165c0.388,0.147,0.866,0.271,1.437,0.372
		c0.568,0.102,1.259,0.168,2.068,0.201c0.811,0.033,1.457,0.054,1.938,0.06c0.482,0.008,1.188,0.008,2.119,0
		c0.932-0.006,1.443-0.01,1.537-0.01s0.605,0.003,1.537,0.01c0.93,0.008,1.637,0.008,2.119,0c0.481-0.006,1.129-0.026,1.938-0.06
		s1.5-0.101,2.068-0.201c0.568-0.1,1.049-0.224,1.436-0.372c0.671-0.268,1.261-0.655,1.771-1.165
		c0.508-0.509,0.896-1.098,1.164-1.768c0.146-0.388,0.271-0.867,0.371-1.437c0.102-0.568,0.168-1.259,0.201-2.068
		c0.032-0.811,0.053-1.457,0.061-1.938c0.006-0.481,0.006-1.188,0-2.12c-0.008-0.931-0.01-1.442-0.01-1.536
		c0-0.095,0.002-0.606,0.01-1.537c0.006-0.932,0.006-1.638,0-2.119c-0.008-0.482-0.027-1.128-0.061-1.939
		c-0.033-0.81-0.101-1.5-0.201-2.068c-0.101-0.569-0.226-1.049-0.371-1.438c-0.269-0.669-0.656-1.259-1.164-1.768
		c-0.51-0.51-1.1-0.897-1.771-1.165c-0.387-0.147-0.866-0.271-1.436-0.372c-0.569-0.102-1.26-0.167-2.068-0.201
		c-0.811-0.033-1.457-0.053-1.938-0.06C18.603,2.755,17.896,2.755,16.966,2.762z M21.034,9.824c1.539,1.54,2.311,3.408,2.311,5.605
		c0,2.195-0.771,4.064-2.311,5.604c-1.541,1.541-3.409,2.311-5.605,2.311c-2.197,0-4.063-0.77-5.604-2.311
		c-1.54-1.54-2.312-3.408-2.312-5.604c0-2.197,0.771-4.065,2.312-5.605c1.541-1.54,3.407-2.311,5.604-2.311
		C17.625,7.513,19.493,8.284,21.034,9.824z M19.065,19.064c1.004-1.004,1.506-2.216,1.506-3.637c0-1.42-0.502-2.632-1.506-3.636
		c-1.006-1.004-2.217-1.507-3.637-1.507s-2.632,0.502-3.637,1.507c-1.004,1.004-1.506,2.217-1.506,3.636
		c0,1.42,0.502,2.632,1.506,3.637c1.005,1.005,2.217,1.507,3.637,1.507S18.06,20.069,19.065,19.064z M24.972,5.885
		c0.361,0.361,0.541,0.798,0.541,1.307s-0.18,0.943-0.541,1.306C24.61,8.859,24.175,9.04,23.665,9.04
		c-0.508,0-0.943-0.181-1.306-0.542c-0.362-0.36-0.543-0.796-0.543-1.306c0-0.509,0.181-0.944,0.543-1.307
		c0.361-0.361,0.798-0.542,1.306-0.542C24.175,5.344,24.61,5.524,24.972,5.885z"/>
</g>
</svg>
