<?xml version="1.0" encoding="utf-8"?>
<!-- Generator: Adobe Illustrator 14.0.0, SVG Export Plug-In . SVG Version: 6.00 Build 43363)  -->
<!DOCTYPE svg PUBLIC "-//W3C//DTD SVG 1.1//EN" "http://www.w3.org/Graphics/SVG/1.1/DTD/svg11.dtd">
<svg version="1.1" id="Layer_1" xmlns="http://www.w3.org/2000/svg" xmlns:xlink="http://www.w3.org/1999/xlink" x="0px" y="0px"
	 width="30.856px" height="30.857px" viewBox="0 0 30.856 30.857" enable-background="new 0 0 30.856 30.857" xml:space="preserve">
<g>
	<path fill="#FFFEFE" d="M-65.554,0c1.594,0,2.957,0.566,4.088,1.697c1.132,1.132,1.697,2.495,1.697,4.088v19.286
		c0,1.594-0.565,2.957-1.697,4.088c-1.131,1.131-2.494,1.697-4.088,1.697h-3.777V18.904h3.998l0.604-4.661h-4.602V11.27
		c0-0.75,0.158-1.312,0.473-1.688s0.928-0.562,1.838-0.562L-64.569,9V4.841c-0.844-0.121-2.035-0.181-3.576-0.181
		c-1.821,0-3.277,0.536-4.369,1.607c-1.092,1.072-1.637,2.585-1.637,4.541v3.435h-4.018v4.661h4.018v11.953h-10.688
		c-1.594,0-2.957-0.566-4.088-1.697c-1.133-1.132-1.698-2.494-1.698-4.088V5.786c0-1.594,0.565-2.956,1.698-4.088
		C-87.796,0.566-86.433,0-84.839,0H-65.554z"/>
</g>
<g>
	<path fill="#FFFEFE" d="M-15.769,15.429c0,3.067-0.033,5.19-0.1,6.368c-0.135,2.786-0.965,4.942-2.492,6.469
		c-1.525,1.527-3.682,2.357-6.467,2.491c-1.18,0.067-3.303,0.1-6.369,0.1c-3.067,0-5.189-0.033-6.369-0.1
		c-2.785-0.134-4.941-0.964-6.469-2.491c-1.525-1.527-2.356-3.683-2.49-6.469c-0.067-1.178-0.101-3.301-0.101-6.368
		s0.033-5.19,0.101-6.369c0.134-2.785,0.965-4.942,2.49-6.469c1.527-1.527,3.684-2.357,6.469-2.491C-36.386,0.034-34.264,0-31.196,0
		c3.066,0,5.189,0.034,6.369,0.101c2.785,0.134,4.941,0.964,6.467,2.491c1.527,1.527,2.357,3.684,2.492,6.469
		C-15.802,10.239-15.769,12.362-15.769,15.429z M-29.659,2.762c-0.932,0.007-1.443,0.01-1.537,0.01s-0.606-0.003-1.537-0.01
		s-1.637-0.007-2.119,0s-1.129,0.027-1.939,0.06c-0.81,0.034-1.5,0.101-2.068,0.201c-0.569,0.101-1.049,0.224-1.437,0.372
		c-0.67,0.268-1.259,0.656-1.769,1.165c-0.508,0.509-0.896,1.099-1.164,1.768c-0.148,0.389-0.271,0.867-0.372,1.437
		s-0.167,1.259-0.2,2.069c-0.034,0.811-0.055,1.457-0.061,1.939c-0.008,0.482-0.008,1.188,0,2.119
		c0.006,0.931,0.01,1.443,0.01,1.537s-0.004,0.606-0.01,1.537c-0.008,0.931-0.008,1.637,0,2.12c0.006,0.482,0.026,1.128,0.061,1.938
		c0.033,0.811,0.1,1.5,0.2,2.069s0.224,1.048,0.372,1.436c0.268,0.67,0.656,1.259,1.164,1.768c0.51,0.509,1.099,0.897,1.769,1.165
		c0.388,0.147,0.867,0.271,1.437,0.372c0.568,0.101,1.259,0.168,2.068,0.201c0.811,0.033,1.457,0.054,1.939,0.06
		c0.482,0.007,1.188,0.007,2.119,0c0.931-0.006,1.443-0.01,1.537-0.01s0.605,0.003,1.537,0.01c0.93,0.007,1.637,0.007,2.119,0
		c0.482-0.006,1.129-0.027,1.939-0.06c0.809-0.033,1.5-0.101,2.068-0.201c0.568-0.1,1.049-0.224,1.436-0.372
		c0.67-0.268,1.26-0.656,1.77-1.165c0.508-0.509,0.896-1.098,1.164-1.768c0.146-0.388,0.271-0.867,0.371-1.436
		c0.102-0.569,0.168-1.259,0.201-2.069c0.033-0.81,0.053-1.457,0.061-1.938c0.006-0.482,0.006-1.188,0-2.12
		c-0.008-0.931-0.01-1.443-0.01-1.537s0.002-0.606,0.01-1.537c0.006-0.931,0.006-1.637,0-2.119
		c-0.008-0.482-0.027-1.128-0.061-1.939c-0.033-0.81-0.1-1.5-0.201-2.069c-0.1-0.569-0.225-1.048-0.371-1.437
		c-0.268-0.669-0.656-1.259-1.164-1.768c-0.51-0.509-1.1-0.897-1.77-1.165c-0.387-0.147-0.867-0.271-1.436-0.372
		s-1.26-0.167-2.068-0.201c-0.811-0.033-1.457-0.053-1.939-0.06S-28.729,2.755-29.659,2.762z M-25.591,9.824
		c1.539,1.54,2.311,3.408,2.311,5.605c0,2.196-0.771,4.065-2.311,5.604c-1.541,1.541-3.409,2.311-5.605,2.311
		c-2.197,0-4.064-0.77-5.605-2.311c-1.54-1.54-2.311-3.408-2.311-5.604c0-2.197,0.771-4.065,2.311-5.605
		c1.541-1.54,3.408-2.311,5.605-2.311C-29,7.513-27.132,8.284-25.591,9.824z M-27.56,19.064c1.004-1.004,1.506-2.216,1.506-3.636
		s-0.502-2.632-1.506-3.636c-1.006-1.004-2.217-1.507-3.637-1.507s-2.632,0.502-3.637,1.507c-1.004,1.004-1.506,2.217-1.506,3.636
		s0.502,2.631,1.506,3.636c1.005,1.005,2.217,1.507,3.637,1.507S-28.565,20.069-27.56,19.064z M-21.653,5.886
		c0.361,0.361,0.541,0.797,0.541,1.306c0,0.509-0.18,0.944-0.541,1.306C-22.015,8.859-22.45,9.04-22.96,9.04
		c-0.508,0-0.943-0.181-1.305-0.542c-0.363-0.361-0.543-0.796-0.543-1.306c0-0.509,0.18-0.944,0.543-1.306
		c0.361-0.362,0.797-0.542,1.305-0.542C-22.45,5.344-22.015,5.524-21.653,5.886z"/>
</g>
<g>
	<path fill="#FFFEFE" d="M15.43,13.219h14.564c0.16,0.897,0.24,1.754,0.24,2.571c0,2.906-0.609,5.501-1.828,7.785
		c-1.219,2.284-2.957,4.068-5.213,5.354c-2.256,1.286-4.846,1.928-7.764,1.928c-2.104,0-4.105-0.405-6.008-1.215
		C7.52,28.831,5.879,27.737,4.5,26.357c-1.379-1.379-2.475-3.02-3.283-4.922C0.406,19.534,0,17.531,0,15.429
		s0.406-4.105,1.217-6.007C2.025,7.52,3.121,5.879,4.5,4.5s3.02-2.474,4.922-3.285C11.324,0.405,13.326,0,15.43,0
		c4.018,0,7.465,1.346,10.346,4.038l-4.199,4.038c-1.646-1.594-3.695-2.391-6.146-2.391c-1.729,0-3.326,0.436-4.791,1.306
		C9.172,7.862,8.01,9.043,7.152,10.537c-0.857,1.494-1.285,3.124-1.285,4.892c0,1.768,0.428,3.398,1.285,4.892
		c0.857,1.494,2.02,2.675,3.486,3.546c1.465,0.871,3.062,1.306,4.791,1.306c1.164,0,2.236-0.161,3.213-0.482
		c0.979-0.321,1.781-0.723,2.412-1.205c0.629-0.482,1.178-1.031,1.646-1.647c0.469-0.616,0.814-1.198,1.035-1.748
		s0.371-1.071,0.451-1.567H15.43V13.219z"/>
</g>
</svg>
